# xmcd
#
# Track frame offsets:
#	150
#	54998
#	76264
#	108592
#
# Disc length: 1744 seconds
#
# Revision: 1
# Processed by: cddbd v1.5.1PL0 Copyright (c) Steve Scherf et al.
# Submitted via: EasyCDDAExtractor 8.0.2.1
#
DISCID=2706ce04
DTITLE=Ozzy Osbourne - Maimarktgelande Mannheim 31-08-86 Disc 2
DYEAR=1986
DGENRE=Hard Rock
TTITLE0=Secret Loser Incl Drum Solo
TTITLE1=Iron Man
TTITLE2=Crazy Train
TTITLE3=Paranoid
EXTD=
EXTT0=
EXTT1=
EXTT2=
EXTT3=
PLAYORDER=
